<svg width="89" height="88" viewBox="0 0 89 88" fill="none" xmlns="http://www.w3.org/2000/svg">
<g id="Icon">
<circle id="Ellipse 15" cx="44.1279" cy="44" r="44" fill="#FFDC60"/>
<path id="Vector" d="M48.1279 42.6429H45.4613V31.7857H46.7946C48.2077 31.7902 49.5617 32.3636 50.561 33.3806C51.5602 34.3977 52.1235 35.7759 52.1279 37.2143C52.1279 37.5742 52.2684 37.9194 52.5185 38.1739C52.7685 38.4284 53.1076 38.5714 53.4613 38.5714C53.8149 38.5714 54.154 38.4284 54.4041 38.1739C54.6541 37.9194 54.7946 37.5742 54.7946 37.2143C54.7946 35.0547 53.9517 32.9835 52.4515 31.4564C50.9512 29.9293 48.9163 29.0714 46.7946 29.0714H45.4613V26.3571C45.4613 25.9972 45.3208 25.652 45.0707 25.3975C44.8207 25.143 44.4816 25 44.1279 25C43.7743 25 43.4352 25.143 43.1851 25.3975C42.9351 25.652 42.7946 25.9972 42.7946 26.3571V29.0714H40.7946C38.6729 29.0714 36.638 29.9293 35.1377 31.4564C33.6375 32.9835 32.7946 35.0547 32.7946 37.2143C32.7946 39.3739 33.6375 41.4451 35.1377 42.9722C36.638 44.4992 38.6729 45.3571 40.7946 45.3571H42.7946V56.2143H40.1279C38.7148 56.2098 37.3608 55.6364 36.3615 54.6194C35.3623 53.6023 34.799 52.2241 34.7946 50.7857C34.7946 50.4258 34.6541 50.0806 34.4041 49.8261C34.154 49.5716 33.8149 49.4286 33.4613 49.4286C33.1076 49.4286 32.7685 49.5716 32.5185 49.8261C32.2684 50.0806 32.1279 50.4258 32.1279 50.7857C32.1279 52.9453 32.9708 55.0165 34.4711 56.5436C35.9714 58.0707 38.0062 58.9286 40.1279 58.9286H42.7946V61.6429C42.7946 62.0028 42.9351 62.348 43.1851 62.6025C43.4352 62.857 43.7743 63 44.1279 63C44.4816 63 44.8207 62.857 45.0707 62.6025C45.3208 62.348 45.4613 62.0028 45.4613 61.6429V58.9286H48.1279C50.2497 58.9286 52.2845 58.0707 53.7848 56.5436C55.2851 55.0165 56.1279 52.9453 56.1279 50.7857C56.1279 48.6261 55.2851 46.5549 53.7848 45.0278C52.2845 43.5008 50.2497 42.6429 48.1279 42.6429ZM42.7946 42.6429H40.7946C39.3801 42.6429 38.0236 42.0709 37.0234 41.0529C36.0232 40.0348 35.4613 38.654 35.4613 37.2143C35.4613 35.7745 36.0232 34.3938 37.0234 33.3757C38.0236 32.3577 39.3801 31.7857 40.7946 31.7857H42.7946V42.6429ZM48.1279 56.2143H45.4613V45.3571H48.1279C49.5424 45.3571 50.899 45.9291 51.8992 46.9471C52.8994 47.9652 53.4613 49.346 53.4613 50.7857C53.4613 52.2255 52.8994 53.6062 51.8992 54.6243C50.899 55.6423 49.5424 56.2143 48.1279 56.2143Z" fill="#B4962B"/>
</g>
</svg>
