<svg width="153" height="153" viewBox="0 0 153 153" fill="none" xmlns="http://www.w3.org/2000/svg">
<circle cx="76.5" cy="76.5" r="76.5" fill="#292930"/>
<mask id="mask0_4_943" style="mask-type:alpha" maskUnits="userSpaceOnUse" x="26" y="25" width="100" height="102">
<rect x="26.75" y="25" width="99" height="102" fill="#D9D9D9"/>
</mask>
<g mask="url(#mask0_4_943)">
<path d="M65.834 106.919C64.459 104.723 63.3762 102.385 62.5856 99.9063C61.795 97.4272 61.0903 94.948 60.4715 92.4688H48.9215C50.709 95.8688 53.0465 98.8261 55.934 101.341C58.8215 103.855 62.1215 105.715 65.834 106.919ZM45.5184 84.1813H58.8215C58.6153 82.7647 58.4606 81.4188 58.3575 80.1438C58.2543 78.8688 58.2028 77.4876 58.2028 76.0001C58.2028 74.5834 58.2543 73.2199 58.3575 71.9094C58.4606 70.599 58.6153 69.2355 58.8215 67.8188H45.5184C45.1747 69.1647 44.9168 70.5105 44.745 71.8563C44.5731 73.2022 44.4872 74.5834 44.4872 76.0001C44.4872 77.4876 44.5731 78.8865 44.745 80.1969C44.9168 81.5074 45.1747 82.8355 45.5184 84.1813ZM48.9215 59.6376H60.4715C61.0903 57.1584 61.795 54.6615 62.5856 52.1469C63.3762 49.6324 64.459 47.2772 65.834 45.0813C62.1215 46.2855 58.8215 48.1626 55.934 50.7126C53.0465 53.2626 50.709 56.2376 48.9215 59.6376ZM68.9278 59.6376H83.4684C82.6434 56.6626 81.5778 53.8115 80.2715 51.0844C78.9653 48.3574 77.5559 45.7897 76.0434 43.3813C74.5309 45.7897 73.1731 48.3574 71.97 51.0844C70.7668 53.8115 69.7528 56.6626 68.9278 59.6376ZM91.9247 59.6376H103.475C101.687 56.2376 99.3153 53.2626 96.359 50.7126C93.4028 48.1626 90.0684 46.2855 86.3559 45.0813C87.7309 47.2772 88.8481 49.6324 89.7075 52.1469C90.5668 54.6615 91.3059 57.1584 91.9247 59.6376ZM76.2497 122.113C70.1309 122.113 64.3559 120.891 58.9247 118.447C53.4934 116.003 48.7497 112.692 44.6934 108.513C40.6372 104.333 37.4231 99.4459 35.0512 93.8501C32.6793 88.2542 31.4934 82.3042 31.4934 76.0001C31.4934 69.6959 32.6793 63.7459 35.0512 58.1501C37.4231 52.5542 40.6372 47.6667 44.6934 43.4876C48.7497 39.3084 53.4934 35.9969 58.9247 33.5532C64.3559 31.1094 70.1309 29.8876 76.2497 29.8876C82.3684 29.8876 88.1434 31.1094 93.5747 33.5532C99.0059 35.9969 103.75 39.3084 107.806 43.4876C111.862 47.6667 115.076 52.5542 117.448 58.1501C119.82 63.7459 121.006 69.6959 121.006 76.0001V77.8063H107.806V76.0001C107.806 74.5834 107.72 73.2022 107.548 71.8563C107.376 70.5105 107.118 69.1647 106.775 67.8188H93.5747C93.7122 69.2355 93.8153 70.599 93.884 71.9094C93.9528 73.2199 93.9872 74.5834 93.9872 76.0001V77.8063H85.7372V76.0001C85.7372 74.5834 85.72 73.2199 85.6856 71.9094C85.6512 70.599 85.5309 69.2355 85.3247 67.8188H67.0715C66.8653 69.2355 66.7106 70.599 66.6075 71.9094C66.5043 73.2199 66.4528 74.5834 66.4528 76.0001C66.4528 77.4876 66.5043 78.8688 66.6075 80.1438C66.7106 81.4188 66.8653 82.7647 67.0715 84.1813H78.0028V92.4688H68.9278C69.7528 95.4438 70.7668 98.2772 71.97 100.969C73.1731 103.66 74.5309 106.21 76.0434 108.619C76.3872 108.052 76.7137 107.521 77.0231 107.025C77.3325 106.529 77.659 105.998 78.0028 105.431V122.006C77.659 122.006 77.3668 122.024 77.1262 122.059C76.8856 122.095 76.5934 122.113 76.2497 122.113ZM109.043 119.35L99.2465 109.256V115.206H86.2528V86.3063H114.303V99.6938H108.425L118.118 109.788L109.043 119.35Z" fill="white"/>
</g>
</svg>
