<svg width="154" height="153" viewBox="0 0 154 153" fill="none" xmlns="http://www.w3.org/2000/svg">
<circle cx="77.0513" cy="76.5" r="76.5" fill="#292930"/>
<mask id="mask0_12_1520" style="mask-type:alpha" maskUnits="userSpaceOnUse" x="42" y="45" width="71" height="64">
<rect x="42" y="45" width="70.8022" height="63.8718" fill="#D9D9D9"/>
</mask>
<g mask="url(#mask0_12_1520)">
<path d="M76.8105 98.2265C77.0072 98.2265 77.1915 98.2043 77.3636 98.1599C77.5357 98.1156 77.7201 98.0047 77.9168 97.8273L101.739 76.3371C102.476 75.6717 103.042 74.8955 103.435 74.0084C103.828 73.1213 104.025 72.1898 104.025 71.214C104.025 70.2382 103.828 69.2956 103.435 68.3864C103.042 67.4771 102.476 66.6898 101.739 66.0244L91.9297 57.1755C91.2905 56.5989 90.5776 56.1997 89.7909 55.9779C89.0042 55.7561 88.1684 55.6453 87.2833 55.6453C86.4475 55.6453 85.6239 55.7561 84.8126 55.9779C84.0013 56.1997 83.3253 56.5102 82.7844 56.9094L82.6369 57.109L87.5046 61.5002C88.4879 62.3873 89.2132 63.352 89.6803 64.3944C90.1474 65.4367 90.3809 66.5789 90.3809 67.8208C90.3809 70.216 89.459 72.2453 87.6152 73.9086C85.7714 75.5719 83.5219 76.4036 80.8669 76.4036C79.5393 76.4036 78.2855 76.1929 77.1055 75.7715C75.9255 75.3502 74.8438 74.6959 73.8604 73.8088L68.5502 69.0184L57.3399 79.0649C57.1924 79.198 57.0817 79.3532 57.008 79.5307C56.9342 79.7081 56.8974 79.8855 56.8974 80.0629C56.8974 80.4178 57.0326 80.7172 57.303 80.9611C57.5734 81.2051 57.9053 81.3271 58.2986 81.3271C58.4953 81.3271 58.7043 81.2827 58.9255 81.194C59.1468 81.1053 59.3066 81.0166 59.4049 80.9279L68.4765 72.8108L72.6066 76.5367L63.6088 84.6537C63.4613 84.7868 63.3507 84.9531 63.2769 85.1527C63.2032 85.3523 63.1663 85.5408 63.1663 85.7182C63.1663 86.0731 63.2892 86.3614 63.5351 86.5832C63.7809 86.805 64.1005 86.9158 64.4938 86.9158C64.6905 86.9158 64.8995 86.8715 65.1207 86.7828C65.342 86.6941 65.5264 86.6053 65.6739 86.5166L74.5242 78.5327L78.6543 82.2585L69.6565 90.3756C69.5582 90.4643 69.4598 90.6084 69.3615 90.808C69.2632 91.0076 69.214 91.1961 69.214 91.3736C69.214 91.7284 69.3492 92.0278 69.6196 92.2718C69.8901 92.5157 70.2219 92.6377 70.6153 92.6377C70.812 92.6377 71.0086 92.6044 71.2053 92.5379C71.402 92.4714 71.5741 92.3716 71.7216 92.2385L80.7194 84.1214L84.8495 87.8473L75.8517 95.9643C75.7042 96.0974 75.5936 96.2637 75.5198 96.4633C75.4461 96.6629 75.4092 96.8515 75.4092 97.0289C75.4092 97.3837 75.5444 97.672 75.8148 97.8938C76.0853 98.1156 76.4171 98.2265 76.8105 98.2265ZM76.8105 105.612C74.6963 105.612 72.791 105.046 71.0947 103.915C69.3984 102.784 68.2798 101.309 67.7389 99.4906C66.2639 99.1801 64.9487 98.4926 63.7932 97.4281C62.6377 96.3635 61.8879 95.166 61.5438 93.8353C60.1179 93.4804 58.8395 92.804 57.7086 91.806C56.5778 90.808 55.8157 89.6659 55.4223 88.3796C53.5047 87.936 51.8945 86.938 50.5915 85.3856C49.2886 83.8331 48.6371 82.0589 48.6371 80.0629C48.6371 78.954 48.8829 77.8673 49.3746 76.8028C49.8663 75.7383 50.5547 74.8068 51.4397 74.0084L68.5502 58.5727L79.6131 68.5527C79.8097 68.7301 80.0064 68.8632 80.2031 68.9519C80.3998 69.0406 80.621 69.0849 80.8669 69.0849C81.2602 69.0849 81.5798 68.963 81.8256 68.719C82.0715 68.4751 82.1944 68.1757 82.1944 67.8208C82.1944 67.6434 82.1452 67.4327 82.0469 67.1888C81.9486 66.9448 81.8256 66.7785 81.6781 66.6898L70.9103 56.9759C70.4186 56.488 69.7303 56.1443 68.8452 55.9447C67.9602 55.7451 67.026 55.6453 66.0426 55.6453C65.0593 55.6453 64.1743 55.7451 63.3876 55.9447C62.6009 56.1443 61.9371 56.488 61.3962 56.9759L52.0297 65.4256C51.7347 65.6918 51.4766 66.1131 51.2553 66.6898C51.034 67.2664 50.8988 67.9317 50.8497 68.6858C50.8005 68.9519 50.8251 69.2291 50.9234 69.5174C51.0218 69.8057 51.1201 70.1051 51.2184 70.4156L45.3182 75.7383C44.5315 74.9842 43.8801 73.9308 43.3638 72.5779C42.8475 71.2251 42.614 69.9277 42.6632 68.6858C42.7123 66.9559 43.0196 65.3924 43.5851 63.9952C44.1505 62.598 45.0478 61.3449 46.277 60.236L55.5698 51.7863C56.8974 50.5887 58.5076 49.7016 60.4006 49.125C62.2936 48.5484 64.1743 48.2601 66.0426 48.2601C68.0585 48.2601 69.9761 48.5484 71.7953 49.125C73.6145 49.7016 75.1634 50.5222 76.4417 51.5867L76.663 51.7198L76.8105 51.5867C78.0397 50.6109 79.6008 49.8125 81.4938 49.1915C83.3867 48.5706 85.3166 48.2601 87.2833 48.2601C89.1517 48.2601 91.0201 48.5927 92.8885 49.2581C94.7569 49.9234 96.3549 50.8549 97.6824 52.0525L108.081 61.3671C109.409 62.5647 110.417 64.0617 111.105 65.8581C111.794 67.6545 112.138 69.4398 112.138 71.214C112.138 73.0326 111.757 74.8733 110.995 76.7363C110.233 78.5992 109.139 80.1738 107.713 81.4601L83.6695 103.083C82.7353 103.926 81.6904 104.558 80.535 104.98C79.3795 105.401 78.138 105.612 76.8105 105.612Z" fill="white"/>
</g>
</svg>
