<svg width="154" height="153" viewBox="0 0 154 153" fill="none" xmlns="http://www.w3.org/2000/svg">
<circle cx="77" cy="76.5" r="76.5" fill="#292930"/>
<mask id="mask0_4_906" style="mask-type:alpha" maskUnits="userSpaceOnUse" x="26" y="18" width="105" height="111">
<rect x="26" y="18" width="105" height="111" fill="#D9D9D9"/>
</mask>
<g mask="url(#mask0_4_906)">
<path d="M40.7657 64.25C39.9636 63.7105 39.4349 62.9782 39.1797 62.0532C38.9245 61.1282 39.0886 60.2417 39.6719 59.3938C44.0469 52.4563 49.698 47.0797 56.6251 43.2641C63.5521 39.4485 70.9532 37.5407 78.8282 37.5407C86.5573 37.5407 93.8308 39.3136 100.648 42.8594C107.466 46.4053 113.099 51.5313 117.547 58.2375C118.276 59.3938 118.508 60.4537 118.242 61.4172C117.977 62.3808 117.49 63.1709 116.781 63.7875C116.052 64.3271 115.232 64.5584 114.32 64.4813C113.409 64.4042 112.662 63.8646 112.078 62.8625C108.359 57.0813 103.547 52.6875 97.6407 49.6813C91.7344 46.675 85.4636 45.1334 78.8282 45.0563C72.1928 44.9792 65.9402 46.4823 60.0704 49.5657C54.2006 52.649 49.4792 57.1198 45.9063 62.9782C45.1771 64.1344 44.3204 64.7511 43.336 64.8282C42.3516 64.9053 41.4948 64.7126 40.7657 64.25ZM92.6094 121.831C83.5678 120.058 76.6589 115.934 71.8829 109.459C67.1068 102.984 64.7188 95.3146 64.7188 86.4501C64.7188 82.1334 66.1042 78.4527 68.8751 75.4079C71.6459 72.3631 75.0001 70.8407 78.9376 70.8407C82.8751 70.8407 86.2292 72.286 89.0001 75.1766C91.7709 78.0672 93.1563 81.5938 93.1563 85.7563C93.1563 87.9146 93.849 89.7839 95.2344 91.3641C96.6199 92.9443 98.3334 93.7344 100.375 93.7344C102.417 93.7344 104.112 92.9443 105.461 91.3641C106.81 89.7839 107.484 87.9146 107.484 85.7563C107.484 77.4313 104.695 70.3974 99.1172 64.6547C93.5391 58.912 86.7761 56.0407 78.8282 56.0407C70.8803 56.0407 64.1719 59.0084 58.7032 64.9438C53.2344 70.8792 50.5001 78.048 50.5001 86.4501C50.5001 89.6875 50.6823 92.5396 51.0469 95.0063C51.4115 97.473 51.9584 99.824 52.6876 102.059C53.0521 103.216 53.0521 104.237 52.6876 105.123C52.323 106.01 51.7032 106.646 50.8282 107.031C49.8073 107.417 48.8777 107.397 48.0391 106.973C47.2006 106.55 46.5261 105.721 46.0157 104.488C45.2136 102.329 44.5756 99.7277 44.1016 96.6829C43.6277 93.6381 43.3907 90.2271 43.3907 86.4501C43.3907 75.8896 46.8178 66.948 53.6719 59.625C60.5261 52.3021 68.9115 48.6407 78.8282 48.6407C88.7448 48.6407 97.1667 52.2443 104.094 59.4516C111.021 66.6589 114.484 75.4271 114.484 85.7563C114.484 89.9959 113.117 93.6188 110.383 96.6251C107.648 99.6313 104.313 101.134 100.375 101.134C96.4376 101.134 93.0652 99.7277 90.2579 96.9141C87.4506 94.1006 86.0469 90.6125 86.0469 86.4501C86.0469 84.2146 85.3724 82.3068 84.0235 80.7266C82.6745 79.1464 80.9792 78.3563 78.9376 78.3563C76.8959 78.3563 75.2006 79.1464 73.8516 80.7266C72.5027 82.3068 71.8282 84.2146 71.8282 86.4501C71.8282 93.6959 73.7058 99.824 77.461 104.834C81.2162 109.845 86.9584 113.159 94.6876 114.778C95.7084 114.932 96.4011 115.433 96.7657 116.281C97.1303 117.129 97.2032 118.016 96.9844 118.941C96.7657 119.789 96.31 120.54 95.6172 121.195C94.9245 121.851 93.9219 122.063 92.6094 121.831ZM54.6563 40.2C53.6355 40.8167 52.6329 41.0094 51.6485 40.7782C50.6641 40.5469 49.9167 39.9688 49.4063 39.0438C49.0417 38.273 49.0053 37.3672 49.2969 36.3266C49.5886 35.286 50.1719 34.4959 51.0469 33.9563C55.2761 31.2584 59.7605 29.3313 64.5001 28.175C69.2396 27.0188 74.0521 26.4407 78.9376 26.4407C83.7501 26.4407 88.4167 27.0381 92.9376 28.2329C97.4584 29.4277 101.833 31.1813 106.063 33.4938C107.156 34.1105 107.813 34.9006 108.031 35.8641C108.25 36.8277 108.177 37.7334 107.813 38.5813C107.375 39.4292 106.719 40.0652 105.844 40.4891C104.969 40.9131 104.021 40.8167 103 40.2C99.2813 38.0417 95.3803 36.4422 91.2969 35.4016C87.2136 34.361 83.0938 33.8407 78.9376 33.8407C74.7084 33.8407 70.5339 34.361 66.4141 35.4016C62.2943 36.4422 58.3751 38.0417 54.6563 40.2ZM66.4688 119.288C62.1667 114.663 59.0313 109.671 57.0626 104.314C55.0938 98.9568 54.1094 93.0021 54.1094 86.4501C54.1094 79.05 56.5157 72.7485 61.3282 67.5454C66.1407 62.3422 72.0105 59.7407 78.9376 59.7407C85.7917 59.7407 91.6615 62.2652 96.5469 67.3141C101.432 72.3631 103.875 78.5105 103.875 85.7563C103.875 86.9896 103.583 88.011 103 88.8204C102.417 89.6297 101.542 90.0344 100.375 90.0344C99.2084 90.0344 98.3152 89.6297 97.6954 88.8204C97.0756 88.011 96.7657 86.9896 96.7657 85.7563C96.7657 80.5917 95.0339 76.198 91.5704 72.5751C88.1068 68.9521 83.8959 67.1407 78.9376 67.1407C73.9063 67.1407 69.6771 69.0292 66.2501 72.8063C62.823 76.5834 61.1094 81.1313 61.1094 86.4501C61.1094 92.0771 61.9115 97.049 63.5157 101.366C65.1198 105.682 67.8542 109.999 71.7188 114.316C72.448 115.087 72.8308 115.954 72.8672 116.917C72.9037 117.881 72.6667 118.709 72.1563 119.403C71.4271 120.328 70.4792 120.733 69.3126 120.617C68.1459 120.502 67.198 120.058 66.4688 119.288ZM101.797 112.234C94.5053 112.234 88.2891 110.018 83.1485 105.586C78.0079 101.154 75.4376 94.6209 75.4376 85.9875C75.4376 84.9084 75.7474 83.9834 76.3672 83.2126C76.987 82.4417 77.8438 82.0563 78.9376 82.0563C80.0313 82.0563 80.8881 82.4417 81.5079 83.2126C82.1277 83.9834 82.4376 84.9084 82.4376 85.9875C82.4376 92.3855 84.2969 97.1068 88.0157 100.152C91.7344 103.196 96.3282 104.719 101.797 104.719C102.526 104.719 103.346 104.642 104.258 104.488C105.169 104.333 106.026 104.256 106.828 104.256C107.776 104.256 108.596 104.545 109.289 105.123C109.982 105.702 110.328 106.492 110.328 107.494C110.328 108.573 110.073 109.402 109.563 109.98C109.052 110.558 108.432 111.001 107.703 111.309C106.682 111.695 105.643 111.945 104.586 112.061C103.529 112.177 102.599 112.234 101.797 112.234Z" fill="white"/>
</g>
</svg>
