<svg width="89" height="88" viewBox="0 0 89 88" fill="none" xmlns="http://www.w3.org/2000/svg">
<circle cx="44.5" cy="44" r="44" fill="#F96A4B"/>
<path d="M52.0976 39.8549L41.9617 49.5246L36.9024 44.6897M31.8085 56.6905C30.2199 55.1019 31.2732 51.7693 30.4617 49.8181C29.6501 47.8669 26.542 46.1574 26.542 43.999C26.542 41.8406 29.6156 40.2002 30.4617 38.1799C31.3078 36.1597 30.2199 32.8961 31.8085 31.3075C33.3971 29.719 36.7297 30.7723 38.6809 29.9607C40.6321 29.1491 42.3416 26.041 44.5 26.041C46.6584 26.041 48.2988 29.1146 50.3191 29.9607C52.3394 30.8068 55.6029 29.719 57.1915 31.3075C58.7801 32.8961 57.7268 36.2287 58.5383 38.1799C59.3499 40.1311 62.458 41.8406 62.458 43.999C62.458 46.1574 59.3844 47.7978 58.5383 49.8181C57.6922 51.8384 58.7801 55.1019 57.1915 56.6905C55.6029 58.2791 52.2703 57.2258 50.3191 58.0374C48.3679 58.8489 46.6584 61.957 44.5 61.957C42.3416 61.957 40.7012 58.8835 38.6809 58.0374C36.6606 57.1913 33.3971 58.2791 31.8085 56.6905Z" stroke="#A72D13" stroke-width="2.2" stroke-linecap="round" stroke-linejoin="round"/>
</svg>
