<svg width="154" height="153" viewBox="0 0 154 153" fill="none" xmlns="http://www.w3.org/2000/svg">
<circle cx="77.0103" cy="76.5" r="76.5" fill="#292930"/>
<mask id="mask0_12_1500" style="mask-type:alpha" maskUnits="userSpaceOnUse" x="26" y="32" width="91" height="90">
<rect x="26" y="32" width="91" height="90" fill="#D9D9D9"/>
</mask>
<g mask="url(#mask0_12_1500)">
<path d="M39.2702 101.469L31.8765 94.25L52.9202 73.3438C55.448 70.8438 58.4813 69.5938 62.0202 69.5938C65.5591 69.5938 68.5924 70.8438 71.1202 73.3438L75.4806 77.6563C75.9862 78.1563 76.5391 78.4063 77.1395 78.4063C77.7398 78.4063 78.2928 78.1563 78.7983 77.6563L93.2067 63.4063H85.5286V53.0938H111.122V78.4063H100.695V70.8125L86.1921 85.0625C83.6643 87.5625 80.631 88.8125 77.0921 88.8125C73.5532 88.8125 70.5199 87.5625 67.9921 85.0625L63.5369 80.6563C63.0945 80.2188 62.5732 80 61.9728 80C61.3725 80 60.8511 80.2188 60.4088 80.6563L39.2702 101.469Z" fill="white"/>
</g>
</svg>
