<svg width="154" height="153" viewBox="0 0 154 153" fill="none" xmlns="http://www.w3.org/2000/svg">
<circle cx="77.0308" cy="76.5" r="76.5" fill="#292930"/>
<mask id="mask0_12_1510" style="mask-type:alpha" maskUnits="userSpaceOnUse" x="23" y="13" width="109" height="122">
<rect x="23" y="13" width="109" height="122" fill="#D9D9D9"/>
</mask>
<g mask="url(#mask0_12_1510)">
<path d="M120.906 73.4L117.719 66L110.688 62.5L117.713 59.0938L120.906 51.6L124.188 59.1L131.125 62.5L124.188 66L120.906 73.4ZM109.656 54.4L104.875 43.1L94.2813 37.9L104.875 32.8L109.656 21.5L114.531 32.8L125.125 37.9L114.555 43.125L109.656 54.4ZM67.8438 123.1C65.4719 123.1 63.4414 122.1 61.7523 120.1C60.0633 118.1 59.2188 115.633 59.2188 112.7H76.5625C76.5625 115.633 75.7088 118.1 74.0013 120.1C72.2939 122.1 70.2414 123.1 67.8438 123.1ZM52 107.9V98.4H83.7813V107.9H52ZM52.9375 93.6C48.0625 90.4667 44.125 86.3167 41.125 81.15C38.125 75.9833 36.625 70.3333 36.625 64.2C36.625 54.95 39.6618 47.0875 45.7353 40.6125C51.8088 34.1375 59.1838 30.9 67.8602 30.9C76.5367 30.9 83.9219 34.1375 90.0156 40.6125C96.1094 47.0875 99.1563 54.95 99.1563 64.2C99.1563 70.4 97.6563 76.0667 94.6563 81.2C91.6563 86.3333 87.7188 90.4667 82.8438 93.6H52.9375ZM56.5 81H79.2813C81.9063 79 83.9063 76.5667 85.2813 73.7C86.6563 70.8333 87.3438 67.674 87.3438 64.2219C87.3438 58.3406 85.4688 53.4167 81.7188 49.45C77.9688 45.4833 73.3438 43.5 67.8438 43.5C62.3438 43.5 57.7344 45.4833 54.0156 49.45C50.2969 53.4167 48.4375 58.3406 48.4375 64.2219C48.4375 67.674 49.125 70.8333 50.5 73.7C51.875 76.5667 53.875 79 56.5 81Z" fill="white"/>
</g>
</svg>
