<svg width="154" height="153" viewBox="0 0 154 153" fill="none" xmlns="http://www.w3.org/2000/svg">
<circle cx="77" cy="76.5" r="76.5" fill="#292930"/>
<mask id="mask0_4_862" style="mask-type:alpha" maskUnits="userSpaceOnUse" x="31" y="35" width="92" height="83">
<rect x="31.5" y="35" width="91" height="83" fill="#D9D9D9"/>
</mask>
<g mask="url(#mask0_4_862)">
<path d="M42.0223 98.5468L32.3535 92.2353L53.966 60.5916L63.6348 70.8801L76.9056 51.1676L89.8921 69.0645C87.8066 69.2951 85.816 69.7562 83.9202 70.4478C82.0244 71.1395 80.2549 72.0617 78.6119 73.2145L77.2848 71.3989L65.2462 89.2958L55.4827 79.0072L42.0223 98.5468ZM113.116 117.222L100.983 106.069C99.7188 106.645 98.4075 107.077 97.0488 107.366C95.6901 107.654 94.2841 107.798 92.8306 107.798C87.7118 107.798 83.3514 106.155 79.7494 102.87C76.1473 99.5843 74.3462 95.6072 74.3462 90.9385C74.3462 86.2697 76.1473 82.2782 79.7494 78.964C83.3514 75.6498 87.7118 73.9926 92.8306 73.9926C97.9493 73.9926 102.31 75.6498 105.912 78.964C109.514 82.2782 111.315 86.2697 111.315 90.9385C111.315 92.2642 111.141 93.561 110.794 94.8291C110.446 96.0972 109.956 97.3076 109.324 98.4603L121.647 109.441L113.116 117.222ZM92.8306 96.9041C94.6632 96.9041 96.2115 96.3277 97.4754 95.1749C98.7393 94.0222 99.3712 92.61 99.3712 90.9385C99.3712 89.2669 98.7393 87.8404 97.4754 86.6588C96.2115 85.4772 94.6632 84.8864 92.8306 84.8864C90.998 84.8864 89.4339 85.4772 88.1384 86.6588C86.8429 87.8404 86.1952 89.2669 86.1952 90.9385C86.1952 92.61 86.8429 94.0222 88.1384 95.1749C89.4339 96.3277 90.998 96.9041 92.8306 96.9041ZM102.973 70.8801C100.951 70.0732 98.8973 69.5256 96.8119 69.2374C94.7264 68.9492 92.5778 68.8916 90.366 69.0645L112.073 36.6426L121.647 43.0406L102.973 70.8801Z" fill="white"/>
</g>
</svg>
