<svg width="154" height="153" viewBox="0 0 154 153" fill="none" xmlns="http://www.w3.org/2000/svg">
<circle cx="77.0718" cy="76.5" r="76.5" fill="#292930"/>
<mask id="mask0_12_1530" style="mask-type:alpha" maskUnits="userSpaceOnUse" x="32" y="30" width="92" height="88">
<rect x="32" y="30" width="92" height="88" fill="#D9D9D9"/>
</mask>
<g mask="url(#mask0_12_1530)">
<path d="M35.3548 78.3083C34.2687 76.1083 33.4381 73.9083 32.8631 71.7083C32.2881 69.5083 32.0006 67.3389 32.0006 65.2C32.0006 58.4778 34.4603 52.7639 39.3798 48.0583C44.2992 43.3528 50.2728 41 57.3006 41C61.3029 41 65.1145 41.7944 68.7356 43.3833C72.3567 44.9722 75.4451 47.2333 78.0006 50.1667C80.5562 47.2333 83.6445 44.9722 87.2656 43.3833C90.8867 41.7944 94.6984 41 98.7006 41C105.728 41 111.702 43.3528 116.621 48.0583C121.541 52.7639 124.001 58.4778 124.001 65.2C124.001 67.3389 123.706 69.5081 123.118 71.7075C122.529 73.907 121.706 76.0767 120.646 78.2167C119.241 76.75 117.596 75.5889 115.711 74.7333C113.826 73.8778 111.83 73.3889 109.721 73.2667C110.418 71.8611 110.959 70.4861 111.346 69.1417C111.732 67.7972 111.926 66.4833 111.926 65.2C111.926 61.7167 110.632 58.7375 108.044 56.2625C105.457 53.7875 102.342 52.55 98.7006 52.55C94.3562 52.55 90.8263 53.5431 88.111 55.5292C85.3958 57.5153 82.0256 60.8 78.0006 65.3833C73.9756 60.8 70.6055 57.5153 67.8902 55.5292C65.1749 53.5431 61.6451 52.55 57.3006 52.55C53.659 52.55 50.5444 53.7875 47.9569 56.2625C45.3694 58.7375 44.0756 61.7167 44.0756 65.2C44.0756 66.4833 44.269 67.7972 44.6557 69.1417C45.0424 70.4861 45.5837 71.8611 46.2798 73.2667C44.2353 73.3889 42.2708 73.8931 40.386 74.7792C38.5013 75.6653 36.8242 76.8417 35.3548 78.3083ZM30.4673 118V110.758C30.4673 107.626 32.031 105.116 35.1583 103.23C38.2857 101.343 42.3442 100.4 47.334 100.4H48.9631C47.9409 101.867 47.1583 103.449 46.6152 105.148C46.0721 106.846 45.8006 108.655 45.8006 110.575V118H30.4673ZM53.4673 118V110.575C53.4673 106.164 55.732 102.602 60.2614 99.888C64.7908 97.1738 70.6995 95.8167 77.9874 95.8167C85.3434 95.8167 91.2735 97.1738 95.7777 99.888C100.282 102.602 102.534 106.164 102.534 110.575V118H53.4673ZM110.201 118V110.575C110.201 108.658 109.945 106.852 109.434 105.156C108.923 103.46 108.156 101.875 107.134 100.4H108.667C113.727 100.4 117.803 101.343 120.896 103.23C123.988 105.116 125.534 107.626 125.534 110.758V118H110.201ZM78.0173 105.533C75.6423 105.533 73.3367 105.793 71.1006 106.312C68.8645 106.832 67.1395 107.458 65.9256 108.192H90.1714C88.8937 107.458 87.1527 106.832 84.9485 106.312C82.7444 105.793 80.434 105.533 78.0173 105.533ZM47.3425 97.1C44.9729 97.1 42.9416 96.2938 41.2485 94.6813C39.5555 93.0688 38.709 91.1304 38.709 88.866C38.709 86.5331 39.5518 84.5722 41.2376 82.9833C42.9234 81.3944 44.9499 80.6 47.3172 80.6C49.7561 80.6 51.8062 81.3899 53.4673 82.9696C55.1284 84.5492 55.959 86.5067 55.959 88.8418C55.959 91.1084 55.1332 93.0514 53.4817 94.6708C51.8302 96.2903 49.7838 97.1 47.3425 97.1ZM108.676 97.1C106.306 97.1 104.275 96.2938 102.582 94.6813C100.889 93.0688 100.042 91.1304 100.042 88.866C100.042 86.5331 100.885 84.5722 102.571 82.9833C104.257 81.3944 106.283 80.6 108.651 80.6C111.089 80.6 113.14 81.3899 114.801 82.9696C116.462 84.5492 117.292 86.5067 117.292 88.8418C117.292 91.1084 116.467 93.0514 114.815 94.6708C113.164 96.2903 111.117 97.1 108.676 97.1ZM78.0006 93.1583C74.3802 93.1583 71.3029 91.9463 68.7687 89.5222C66.2344 87.0982 64.9673 84.1547 64.9673 80.6917C64.9673 77.2083 66.2344 74.2597 68.7687 71.8458C71.3029 69.4319 74.3802 68.225 78.0006 68.225C81.6423 68.225 84.7249 69.4319 87.2485 71.8458C89.7721 74.2597 91.0339 77.2083 91.0339 80.6917C91.0339 84.1547 89.7721 87.0982 87.2485 89.5222C84.7249 91.9463 81.6423 93.1583 78.0006 93.1583ZM78.0006 77.9417C77.234 77.9417 76.5631 78.2052 75.9881 78.7323C75.4131 79.2594 75.1256 79.9125 75.1256 80.6917C75.1256 81.425 75.4131 82.0667 75.9881 82.6167C76.5631 83.1667 77.2499 83.4417 78.0485 83.4417C78.8471 83.4417 79.518 83.1667 80.061 82.6167C80.6041 82.0667 80.8756 81.4097 80.8756 80.6458C80.8756 79.8819 80.6001 79.2403 80.049 78.7208C79.498 78.2014 78.8152 77.9417 78.0006 77.9417Z" fill="white"/>
</g>
</svg>
